<?xml version="1.0" encoding="utf-8"?>
<!-- Generator: Adobe Illustrator 23.0.1, SVG Export Plug-In . SVG Version: 6.00 Build 0)  -->
<svg version="1.1" id="Layer_1" xmlns="http://www.w3.org/2000/svg" xmlns:xlink="http://www.w3.org/1999/xlink" x="0px" y="0px"
	 viewBox="0 0 1204.84 278.89" style="enable-background:new 0 0 1204.84 278.89;" xml:space="preserve">
<style type="text/css">
	.st0{fill:#462C6D;}
	.st1{fill:#664B8E;}
	.st2{fill:#472C6E;}
	.st3{fill:#674C8E;}
	.st4{fill:#674B8D;}
	.st5{fill:#472D6E;}
	.st6{fill:#674B8E;}
	.st7{fill:#7A639B;}
	.st8{fill:#685086;}
	.st9{fill:#939393;}
	.st10{fill:#E8E8E8;}
	.st11{fill:#FFFFFF;}
</style>
<path class="st0" d="M457.62,224.6V105.14c0-24.49-14.88-40.74-37.08-40.74c-21.97,0-36.85,16.25-36.85,40.74V224.6
	c-0.23,1.14,0.69,1.83,1.83,1.83h6.87c1.14,0,1.83-0.69,1.83-1.83v-58.13h52.64v58.13c0,1.14,0.69,1.83,1.83,1.83h6.87
	C456.71,226.43,457.62,225.75,457.62,224.6z M394.23,156.63v-51.49c0-19.23,9.84-30.9,26.32-30.9s26.32,11.67,26.32,30.9v51.49
	H394.23z"/>
<path class="st0" d="M354.41,66.23h-6.87c-1.14,0-2.06,0.69-2.06,1.83V224.6c0,1.14,0.92,1.83,2.06,1.83h6.87
	c1.14,0,1.83-0.69,1.83-1.83V68.06C356.24,66.91,355.55,66.23,354.41,66.23z"/>
<path class="st1" d="M486.91,224.6V68.06c0-1.14,0.69-1.83,1.83-1.83h6.87c1.14,0,2.06,0.69,2.06,1.83v71.64h24.95l27.23-71.86
	c0.23-0.92,1.37-1.6,2.29-1.6h6.87c1.37,0,1.83,0.92,1.37,2.06l-27.69,73.01c16.02,4.35,26.32,19.45,26.32,38.45v44.86
	c0,1.14-0.69,1.83-1.83,1.83h-6.87c-1.14,0-1.83-0.69-1.83-1.83v-44.86c0-17.39-10.99-29.98-26.09-29.98h-24.72v74.84
	c0,1.14-0.92,1.83-2.06,1.83h-6.87C487.6,226.43,486.91,225.75,486.91,224.6z"/>
<path class="st1" d="M586.92,66.23h6.87c1.14,0,2.06,0.69,2.06,1.83V224.6c0,1.14-0.92,1.83-2.06,1.83h-6.87
	c-1.14,0-1.83-0.69-1.83-1.83V68.06C585.09,66.91,585.78,66.23,586.92,66.23z"/>
<path class="st1" d="M681.67,68.06v6.18c0,1.14-0.69,2.06-1.83,2.06h-28.61v148.3c0,1.14-0.69,1.83-1.83,1.83h-6.87
	c-1.14,0-2.06-0.69-2.06-1.83V76.3h-28.61c-1.14,0-1.83-0.92-1.83-2.06v-6.18c0-1.14,0.69-1.83,1.83-1.83h67.97
	C680.99,66.23,681.67,66.91,681.67,68.06z"/>
<path class="st1" d="M686.25,223c0-2.98,2.06-5.03,5.03-5.03c2.97,0,5.03,2.06,5.03,5.03c0,2.98-2.06,5.03-5.03,5.03
	C688.31,228.04,686.25,225.98,686.25,223z"/>
<path class="st1" d="M712.8,225.29v-122.9c0-21.74,12.59-37.76,33.18-37.76c20.83,0,34.1,16.02,34.1,37.76v22.2
	c0,21.74-15.33,37.76-33.64,37.76h-29.07v62.94c0,0.69-0.46,1.14-1.14,1.14h-2.29C713.25,226.43,712.8,225.98,712.8,225.29z
	 M746.44,158c16.02,0,29.07-13.73,29.07-33.41v-22.2c0-19.68-10.99-33.41-29.52-33.41c-17.85,0-28.61,13.73-28.61,33.41V158H746.44z
	"/>
<path class="st1" d="M760.63,191.42c0-0.69,0.46-1.14,1.14-1.14h2.29c0.69,0,1.14,0.46,1.14,1.14c0.46,19,11.9,32.27,30.9,32.27
	c21.05,0,29.98-13.73,29.98-37.99V67.37c0-0.69,0.46-1.14,1.14-1.14h2.29c0.69,0,1.14,0.46,1.14,1.14V185.7
	c0,26.32-10.76,42.34-34.56,42.34C774.82,228.04,761.08,212.47,760.63,191.42z"/>
<path class="st1" d="M856.75,189.13v-85.59c0-21.74,13.5-37.76,35.47-37.76h20.6c0.69,0,1.14,0.46,1.14,1.14v2.06
	c0,0.69-0.46,1.14-1.14,1.14h-20.6c-19.22,0-30.9,13.73-30.9,33.42v39.13h46.92c0.69,0,1.14,0.46,1.14,1.14v2.06
	c0,0.69-0.46,1.14-1.14,1.14h-46.92v42.11c0,19.68,11.67,33.42,30.9,33.42h20.6c0.69,0,1.14,0.46,1.14,1.14v2.06
	c0,0.69-0.46,1.14-1.14,1.14h-20.6C870.25,226.89,856.75,210.87,856.75,189.13z"/>
<path class="st1" d="M924.72,223c0-2.98,2.06-5.03,5.03-5.03c2.97,0,5.03,2.06,5.03,5.03c0,2.98-2.06,5.03-5.03,5.03
	C926.78,228.04,924.72,225.98,924.72,223z"/>
<path class="st2" d="M941.65,191.42c0-0.69,0.46-1.14,1.14-1.14h2.29c0.69,0,1.14,0.46,1.14,1.14c0.46,19,11.9,32.27,30.9,32.27
	c21.05,0,29.98-13.73,29.98-37.99V67.37c0-0.69,0.46-1.14,1.14-1.14h2.29c0.69,0,1.14,0.46,1.14,1.14V185.7
	c0,26.32-10.76,42.34-34.56,42.34C955.84,228.04,942.11,212.47,941.65,191.42z"/>
<path class="st2" d="M1043.49,66.23c0.69,0,1.14,0.46,1.14,1.14v120.61c0,22.2,12.36,35.7,30.67,35.7c18.54,0,30.67-13.5,30.67-35.7
	V67.37c0-0.69,0.46-1.14,1.14-1.14h2.29c0.69,0,1.14,0.46,1.14,1.14v120.61c0,24.26-14.42,40.05-35.24,40.05
	c-21.06,0-35.24-15.79-35.24-40.05V67.37c0-0.69,0.46-1.14,1.14-1.14H1043.49z"/>
<path class="st2" d="M1133.66,191.42c0-0.69,0.46-1.14,1.14-1.14h2.29c0.69,0,1.14,0.46,1.14,1.14
	c0.46,18.54,12.13,32.27,31.13,32.27c19.45,0,30.9-13.73,30.9-31.35c0-44.63-65.46-47.6-65.46-92c0-21.51,14.65-35.7,34.56-35.7
	c19.22,0,34.33,14.19,34.33,36.62c0,0.69-0.46,1.14-1.14,1.14h-2.29c-0.69,0-1.14-0.46-1.14-1.14
	c-0.46-20.37-12.82-32.27-29.75-32.27c-17.17,0-29.98,11.9-29.98,31.35c0,40.97,65.46,45.09,65.46,92c0,19.91-13.73,35.7-35.47,35.7
	C1147.62,228.04,1133.66,212.47,1133.66,191.42z"/>
<g>
	<path class="st3" d="M31.21,130.66c-0.02,0.53-0.05,1.07-0.05,1.6c0,17.17-0.01,34.34,0.02,51.51c0,1.11-0.25,1.48-1.41,1.45
		c-2.76-0.09-5.52-0.08-8.28,0c-1.05,0.03-1.29-0.31-1.29-1.32c0.04-10.01,0.02-20.01,0.02-30.02c0-0.49,0.1-0.99-0.17-1.45
		c-0.25-2.7-0.06-5.41-0.1-8.12c-0.03-2.16-0.01-2.15-2.17-2.16c-1.64-0.01-3.28,0.03-4.93-0.02c-3.15,0.07-6.3,0.02-9.44,0.02
		c-0.49,0-0.99-0.03-1.38-0.39c0-0.08,0-0.16,0-0.25c5.8,0,11.59-0.01,17.39,0.03c0.95,0.01,0.81-0.55,0.81-1.12
		c0-6.42,0.02-12.83-0.02-19.25c-0.01-1.07,0.2-1.48,1.39-1.44c3.2,0.1,6.41,0.05,9.62,0.07c0.39,0.39,0.38,0.89,0.38,1.38
		c0.02,2.7,0.02,5.4,0,8.09C31.59,129.77,31.55,130.26,31.21,130.66z"/>
	<path class="st3" d="M249.31,177.87c-3.29,0-6.58-0.02-9.87,0.03c-0.78,0.01-1.04-0.18-1.04-1.01c0.03-11.44,0.03-22.88,0-34.32
		c0-0.82,0.25-1.03,1.04-1.03c3.29,0.03,6.58-0.01,9.87-0.03C249.31,153.63,249.31,165.75,249.31,177.87z"/>
	<path class="st4" d="M2.02,141.77c3.63,0,7.26,0.01,10.89,0.01c0.36,0.4,0.38,0.9,0.38,1.39c0.02,2.63,0.01,5.26,0,7.9
		c0,0.5-0.06,0.99-0.37,1.41c-0.01,5.68-0.03,11.36,0.01,17.04c0.01,0.92-0.22,1.18-1.16,1.17c-3.25-0.05-6.5,0-9.75,0.02
		C2.02,161.05,2.02,151.41,2.02,141.77z"/>
	<path class="st5" d="M249.31,189c-0.45,0.23-0.32,0.71-0.45,1.07c-0.82,2.28-3.16,3.71-5.44,3.29c-2.42-0.45-4.13-2.45-4.13-4.83
		c-0.01-2.47,1.84-4.54,4.36-4.89c2.24-0.31,4.48,1.18,5.25,3.42c0.14,0.4-0.06,0.92,0.42,1.2
		C249.31,188.5,249.31,188.75,249.31,189z"/>
	<path class="st5" d="M134.81,43.84c1.81,0.73,3.3,1.79,3.71,3.86c0.52,2.6-1,5.1-3.46,5.76c-2.58,0.69-5.16-0.71-5.98-3.25
		c-0.8-2.46,0.45-5.05,2.9-6.06c0.21-0.08,0.52,0.02,0.6-0.31C133.33,43.84,134.07,43.84,134.81,43.84z"/>
	<path class="st5" d="M188.47,248.59c-0.14-0.36-0.52-0.36-0.79-0.5c-2.14-1.12-3.19-3.48-2.53-5.72c0.65-2.24,2.8-3.76,5.03-3.56
		c2.37,0.21,4.23,1.94,4.51,4.18c0.31,2.48-0.98,4.55-3.37,5.36c-0.15,0.05-0.32,0.05-0.37,0.24
		C190.12,248.59,189.3,248.59,188.47,248.59z"/>
	<path class="st3" d="M121.97,195.89c2.22,0.24,4.44,0.04,6.66,0.11c0.54,0.02,0.75-0.21,0.71-0.73c-0.02-0.33,0-0.66,0-0.99
		c0-43.69,0.01-87.37-0.03-131.06c0-1.3,0.33-1.64,1.61-1.59c2.76,0.1,5.52,0.06,8.28,0.01c0.81-0.01,1.07,0.22,1.04,1.03
		c-0.06,1.61,0.05,3.22-0.04,4.82c-0.06,1.04,0.17,1.39,1.32,1.38c5.19-0.06,10.38-0.01,15.58,0.02c0.38,0,0.82-0.19,1.16,0.18
		c-0.5,0.49-1.15,0.39-1.75,0.39c-2.31,0.02-4.61-0.01-6.92,0.01c-1.35,0.01-1.46,0.14-1.5,1.5c-0.01,0.37,0,0.74,0,1.11
		c0,46.26,0,92.52,0,138.78c0,2.93-0.14,2.7,2.66,2.71c1.52,0,3.03,0.04,4.53-0.37c0.94-0.26,1.96-0.26,2.92,0.11
		c0.33,0.24,0.34,0.54,0.14,0.86c-3.38,0.01-6.76,0.01-10.13,0.05c-0.63,0.01-0.79-0.25-0.74-0.81c0.03-0.33,0-0.66,0-0.99
		c0-43.68-0.01-87.37,0.03-131.05c0-1.26-0.31-1.62-1.55-1.53c-1.6,0.11-3.21,0.06-4.82,0.01c-0.7-0.02-0.98,0.21-0.9,0.91
		c0.04,0.33,0.01,0.66,0.01,0.99c0,46.03,0,92.06,0,138.1c0,1.83,0.24,1.61-1.67,1.62c-2.51,0.01-5.03,0-7.54,0
		c-1.67,0-1.67,0-1.67-1.73c0-3.87-0.02-7.75,0.02-11.62c0.01-0.85-0.21-1.12-1.09-1.11c-3.25,0.04-6.51,0-9.76-0.01
		c-0.06-0.17,0-0.29,0.15-0.37c1.11-0.36,2.24-0.14,3.37-0.19c1.89-0.06,3.78-0.04,5.67-0.02c0.95,0.01,1.32-0.36,1.31-1.31
		c-0.03-2.42-0.03-4.85,0-7.28c0.01-0.97-0.4-1.32-1.33-1.3c-1.36,0.03-2.71,0.02-4.07,0c-0.53-0.01-1.07,0.04-1.56-0.26
		C121.9,196.17,121.88,196.04,121.97,195.89z"/>
	<path class="st3" d="M176.62,94.33c-0.01,0.58-0.03,1.15-0.03,1.73c0,43.71,0,87.43,0,131.14c0,1.77,0.23,1.54-1.6,1.55
		c-2.76,0.01-5.52-0.02-8.28,0.02c-0.8,0.01-1.06-0.21-1.05-1.04c0.05-4.49,0.04-8.98,0.04-13.47c-0.33-0.42-0.37-0.91-0.37-1.41
		c-0.01-2.72-0.01-5.44,0-8.16c0-0.5,0.05-0.99,0.37-1.41c-0.01-0.37-0.02-0.74-0.02-1.11c0-41.49,0.01-82.98-0.03-124.47
		c0-1.24,0.28-1.6,1.54-1.55c2.8,0.11,5.6,0.06,8.4,0.01c0.83-0.02,1.04,0.26,1.02,1.05c-0.04,2.06,0,4.12,0,6.18
		c0.36,0.4,0.38,0.9,0.39,1.39c0.01,2.71,0.01,5.43,0,8.14C177,93.43,176.95,93.92,176.62,94.33z"/>
	<path class="st3" d="M183.77,83.45c3.38-0.01,6.75-0.01,10.13-0.05c0.64-0.01,0.91,0.19,0.84,0.84c-0.03,0.33-0.01,0.66-0.01,0.99
		c0,41.26,0.01,82.52-0.03,123.79c0,1.27,0.31,1.61,1.55,1.53c1.93-0.12,3.87-0.06,5.8-0.07c0.09,0.15,0.06,0.29-0.07,0.4
		c-1.44,0.53-2.93,0.22-4.39,0.25c-2.78,0.06-2.54-0.13-2.55,2.54c-0.01,2.01,0.02,4.03-0.01,6.04c-0.01,0.95,0.38,1.31,1.32,1.31
		c1.93-0.02,3.86-0.04,5.8,0.01c1.95-0.07,3.89-0.03,5.84-0.02c0.48,0,0.99-0.01,1.34,0.42c-2.33,0.35-4.67,0.11-7.01,0.14
		c-2.18,0.04-4.37,0.01-6.55-0.05c-0.81-0.02-1.07,0.23-1.06,1.05c0.04,2.92-0.02,5.85,0.04,8.78c0.02,0.89-0.28,1.11-1.13,1.1
		c-2.92-0.04-5.85-0.04-8.78,0c-0.78,0.01-1.18-0.19-1.05-1.04c0.04-0.28,0.01-0.58,0.01-0.86c0-44.83,0-89.66,0-134.49
		c0-0.58-0.03-1.15-0.04-1.73c-0.33-0.41-0.38-0.9-0.38-1.39c-0.01-2.7-0.02-5.4,0-8.1C183.39,84.34,183.38,83.83,183.77,83.45z"/>
	<path class="st3" d="M85.62,214.17c-3.38,0.01-6.75,0.02-10.13,0.05c-0.6,0.01-0.81-0.21-0.76-0.79c0.03-0.33,0.01-0.66,0.01-0.99
		c0-38.8,0-77.59,0-116.39c0-0.58-0.02-1.15-0.03-1.73c-0.33-0.41-0.38-0.9-0.38-1.4c-0.01-2.71-0.01-5.43,0-8.14
		c0-0.5,0.03-0.99,0.39-1.39c0.01-4.41,0.04-8.82,0-13.23c-0.01-0.98,0.18-1.36,1.26-1.33c2.88,0.08,5.77,0.05,8.65,0.01
		c0.81-0.01,1.08,0.22,1.04,1.04c-0.07,1.27-0.02,2.55-0.02,3.83c0,42.77,0,85.55,0,128.32c0,0.41-0.01,0.82-0.02,1.24
		c0.34,0.45,0.37,0.99,0.37,1.52c0.01,2.62,0.01,5.24,0,7.86C85.99,213.19,86.03,213.74,85.62,214.17z"/>
	<path class="st3" d="M158.3,213.48c-3.07-0.1-6.07,0.77-9.16,0.54c-1.18-0.09-1.49-0.36-1.49-1.54
		c0.03-45.11,0.03-90.23,0.03-135.34c0-2.31,0.04-4.62-0.02-6.92c-0.03-0.94,0.29-1.19,1.2-1.18c3.13,0.05,6.26,0.02,9.39,0.02
		c0.03,0.37,0.09,0.73,0.09,1.1c0,44.29,0.01,88.59,0.01,132.88c0,0.08-0.01,0.16-0.01,0.25c0.32,0.42,0.37,0.91,0.37,1.4
		c0.01,2.47,0.02,4.93,0,7.4C158.69,212.59,158.7,213.1,158.3,213.48z"/>
	<path class="st3" d="M103.9,87.1c-0.02,0.53-0.04,1.07-0.04,1.6c0,41.31-0.01,82.63,0.03,123.94c0,1.31-0.34,1.64-1.62,1.59
		c-3.08-0.11-6.18-0.06-9.26-0.07c-0.39-0.39-0.37-0.9-0.37-1.38c-0.02-2.7-0.01-5.4,0-8.1c0-0.5,0.05-0.98,0.37-1.4
		c0-18.55-0.01-37.09-0.01-55.64c0-19.66,0-39.32,0-58.97c0-3.83-0.01-7.66-0.07-11.49c-0.01-0.87,0.25-1.14,1.12-1.11
		c3.29,0.12,6.58-0.15,9.87,0.15c0.36,0.4,0.4,0.89,0.4,1.38c0.01,2.7,0.02,5.41,0,8.11C104.29,86.21,104.27,86.71,103.9,87.1z"/>
	<path class="st3" d="M121.97,195.89c0,0.11,0.01,0.22,0.01,0.33c0.35,0.36,0.35,0.82,0.36,1.27c0.02,2.67,0.02,5.34,0,8.01
		c0,0.45-0.02,0.91-0.35,1.28c-1.16,0.01-2.33,0.01-3.49,0.02c-2.21,0.27-4.43,0.05-6.65,0.12c-0.48,0.02-0.67-0.19-0.65-0.66
		c0.02-0.37,0-0.74,0-1.11c0-38.76,0.02-77.53-0.04-116.29c-0.01-3.28-0.24-6.57-0.17-9.86c0.07-3.08,0.29-6.16,0.21-9.24
		c-0.01-0.44-0.01-0.84,0.62-0.82c3.37,0.09,6.74-0.16,10.11,0.13c0.02,0.37,0.07,0.74,0.07,1.1c0,41.66,0,83.31,0,124.97
		C121.99,195.39,121.98,195.64,121.97,195.89z"/>
	<path class="st3" d="M209.33,221.43c-2.44-0.03-4.88-0.06-7.32-0.09c-0.34-0.42-0.32-0.92-0.32-1.41c-0.01-2.55-0.01-5.09,0-7.64
		c0-0.53-0.02-1.08,0.38-1.51c0-0.1,0-0.2-0.01-0.3c0-36.99,0.01-73.98-0.03-110.97c0-1.19,0.19-1.62,1.51-1.57
		c2.75,0.12,5.52,0.08,8.28,0.01c0.93-0.02,1.16,0.24,1.15,1.16c-0.04,6.88-0.01,13.76-0.01,20.64c0.35,0.4,0.38,0.9,0.38,1.39
		c0.01,2.71,0.01,5.42,0,8.13c0,0.5-0.05,0.99-0.38,1.4c-0.01,4.53-0.02,9.06-0.02,13.59c0,25.28-0.01,50.56,0.03,75.84
		c0,1.16-0.32,1.52-1.43,1.39C210.82,221.39,210.07,221.44,209.33,221.43z"/>
	<path class="st3" d="M67.56,94.32c-0.02,0.53-0.04,1.07-0.04,1.6c0,30.51,0,61.02,0,91.53c0,3.75,0.03,7.49,0.03,11.24
		c0,0.46,0.19,1.03-0.65,1.02c-3.41-0.05-6.83-0.06-10.24-0.09c-0.2-0.22-0.33-0.48-0.33-0.77c-0.03-3.26-0.19-6.51,0.08-9.77
		c0.07-0.15,0.14-0.29,0.21-0.44c-0.02-0.41-0.05-0.82-0.05-1.23c0-34.15,0-68.29,0-102.44c0-1.81-0.19-1.55,1.59-1.55
		c3.13-0.01,6.26,0.02,9.39,0.03c0.39,0.39,0.38,0.89,0.38,1.38c0.02,2.7,0.02,5.4,0,8.1C67.94,93.43,67.89,93.92,67.56,94.32z"/>
	<path class="st6" d="M49.25,199.61c-3.38,0.02-6.75,0.02-10.13,0.06c-0.6,0.01-0.82-0.19-0.76-0.78c0.03-0.33,0.01-0.66,0.01-0.99
		c0-22.41-0.01-44.82-0.01-67.22c-0.33-0.41-0.37-0.9-0.38-1.4c-0.01-2.71-0.01-5.43,0-8.14c0-0.5,0.03-0.99,0.38-1.4
		c0-9.23,0.02-18.45-0.02-27.67c-0.01-1.1,0.28-1.38,1.36-1.35c2.84,0.08,5.68,0.06,8.52,0.01c0.88-0.02,1.1,0.25,1.09,1.11
		c-0.04,5.11-0.02,10.21-0.02,15.32c0,27.18-0.01,54.36-0.01,81.54c0.29,0.38,0.32,0.83,0.32,1.29c0.01,2.79,0.01,5.57,0,8.36
		C49.59,198.8,49.6,199.25,49.25,199.61z"/>
	<path class="st3" d="M220.13,119.8c3.38-0.01,6.76-0.01,10.13-0.04c0.63-0.01,0.93,0.18,0.85,0.83c-0.02,0.2,0,0.41,0,0.62
		c0,25.67-0.01,51.35,0.03,77.02c0,1.22-0.33,1.51-1.5,1.47c-2.68-0.09-5.36-0.09-8.03,0c-1.13,0.04-1.43-0.28-1.42-1.42
		c0.04-22.01,0.03-44.01,0.02-66.02c0-0.53-0.05-1.07-0.08-1.6c-0.35-0.4-0.39-0.89-0.39-1.38c-0.01-2.7-0.02-5.4,0-8.09
		C219.74,120.69,219.73,120.18,220.13,119.8z"/>
	<path class="st5" d="M158.3,213.48c0.01-3.4,0.02-6.79,0.03-10.19c2.46,0,4.91,0,7.37-0.01c0,3.66,0,7.32,0,10.98
		c-2.46-0.03-4.92-0.06-7.38-0.09C158.31,213.94,158.31,213.71,158.3,213.48z"/>
	<path class="st5" d="M93,203.29c0,3.63,0,7.25,0.01,10.88c-2.46,0-4.92,0-7.39,0c0-3.63,0.01-7.26,0.01-10.89
		C88.09,203.29,90.54,203.29,93,203.29z"/>
	<path class="st5" d="M12.92,152.47c0-3.57-0.01-7.13-0.01-10.7c2.14,0,4.28,0,6.42-0.01c0.53,0,0.98,0.01,0.98,0.75
		c-0.02,3.13-0.01,6.25-0.02,9.38c0,0.18-0.16,0.36-0.24,0.54C17.67,152.44,15.3,152.46,12.92,152.47z"/>
	<path class="st5" d="M67.56,94.32c0-3.62,0-7.25,0-10.87c2.39-0.02,4.77-0.03,7.16-0.05c0,3.64-0.01,7.29-0.01,10.93
		C72.33,94.33,69.94,94.33,67.56,94.32z"/>
	<path class="st5" d="M183.77,83.45c0,3.62,0,7.25,0,10.87c-2.38,0-4.77,0.01-7.15,0.01c0-3.64-0.01-7.29-0.01-10.93
		C179,83.42,181.38,83.43,183.77,83.45z"/>
	<path class="st5" d="M220.13,119.8c0,3.62,0,7.24,0,10.85c-2.39,0.01-4.77,0.01-7.16,0.02c0-3.64,0-7.28-0.01-10.92
		C215.35,119.77,217.74,119.78,220.13,119.8z"/>
	<path class="st5" d="M38.36,119.74c0,3.65,0,7.29-0.01,10.94c-2.38-0.01-4.77-0.01-7.15-0.02c0-3.62,0-7.24,0-10.86
		C33.59,119.78,35.97,119.76,38.36,119.74z"/>
	<path class="st5" d="M103.9,87.1c0-3.63-0.01-7.25-0.01-10.88c2.39-0.01,4.78-0.03,7.17-0.04c0.29,1.13,0.13,2.29,0.12,3.43
		c-0.03,2.5,0.17,5-0.11,7.5C108.68,87.1,106.29,87.1,103.9,87.1z"/>
	<path class="st5" d="M56.65,189.02c0,3.53,0,7.07,0.01,10.6c-2.38,0-4.77,0-7.15-0.01c-0.27-2.04-0.07-4.09-0.12-6.14
		c-0.03-1.27-0.01-2.55-0.01-3.82c0-0.38-0.03-0.79,0.52-0.77C52.15,188.96,54.41,188.69,56.65,189.02z"/>
	<path class="st5" d="M206.78,92.8c-2.67-0.01-4.87-2.17-4.9-4.84c-0.04-2.68,2.23-4.96,4.93-4.96c2.65,0.01,4.87,2.21,4.89,4.86
		C211.73,90.59,209.51,92.81,206.78,92.8z"/>
	<path class="st5" d="M175.15,66.6c-0.02,2.68-2.19,4.86-4.87,4.87c-2.7,0.01-4.97-2.28-4.93-4.96c0.04-2.67,2.23-4.84,4.91-4.85
		C172.98,61.65,175.16,63.85,175.15,66.6z"/>
	<path class="st5" d="M43.79,85.68c-2.69-0.01-4.86-2.15-4.89-4.84c-0.03-2.7,2.2-4.95,4.92-4.94c2.68,0.01,4.85,2.17,4.89,4.85
		C48.74,83.46,46.53,85.68,43.79,85.68z"/>
	<path class="st5" d="M139.52,235.7c-0.01,2.68-2.17,4.88-4.84,4.91c-2.7,0.03-4.95-2.22-4.93-4.94c0.01-2.7,2.17-4.86,4.85-4.88
		C137.35,230.77,139.53,232.94,139.52,235.7z"/>
	<path class="st5" d="M238.41,132.47c-0.02-2.75,2.17-4.97,4.89-4.95c2.68,0.01,4.84,2.17,4.87,4.86c0.03,2.73-2.17,4.94-4.9,4.94
		C240.58,137.31,238.43,135.16,238.41,132.47z"/>
	<path class="st5" d="M231.26,211.63c0.01,2.76-2.18,4.93-4.93,4.91c-2.69-0.02-4.85-2.18-4.86-4.87c-0.02-2.72,2.21-4.92,4.95-4.9
		C229.12,206.77,231.26,208.92,231.26,211.63z"/>
	<path class="st5" d="M12.16,180.52c-0.01,2.69-2.16,4.85-4.85,4.86c-2.74,0.02-4.96-2.19-4.95-4.91c0.02-2.73,2.24-4.89,4.99-4.86
		C10.04,175.66,12.17,177.83,12.16,180.52z"/>
	<path class="st5" d="M29.98,196.46c0.02,2.73-2.09,4.89-4.8,4.93c-2.77,0.03-4.99-2.14-4.98-4.88c0.01-2.7,2.17-4.86,4.88-4.87
		C27.8,191.62,29.96,193.76,29.98,196.46z"/>
	<path class="st5" d="M115.88,65.19c-2.74-0.03-4.87-2.24-4.82-5c0.05-2.68,2.23-4.77,4.95-4.75c2.69,0.03,4.84,2.2,4.84,4.87
		C120.86,63.03,118.63,65.22,115.88,65.19z"/>
	<path class="st5" d="M80.32,63.4c-2.72,0-4.87-2.12-4.88-4.84c-0.02-2.77,2.17-4.94,4.94-4.91c2.72,0.03,4.84,2.18,4.83,4.9
		C85.18,61.26,83.04,63.4,80.32,63.4z"/>
	<path class="st5" d="M176.91,241.05c-0.01,2.72-2.15,4.85-4.86,4.85c-2.76,0-4.9-2.18-4.86-4.96c0.03-2.7,2.21-4.82,4.92-4.79
		C174.81,236.17,176.92,238.33,176.91,241.05z"/>
	<path class="st7" d="M111.07,87.11c0-3.64-0.01-7.28-0.01-10.93c0.01-2.13,0.02-4.26,0.02-6.39c0-0.53-0.01-0.96,0.74-0.95
		c3.24,0.03,6.48,0.01,9.71,0.01c0.17,0,0.32,0.04,0.39,0.22c-3.05,0-6.1,0.06-9.15-0.03c-1.23-0.04-1.48,0.37-1.47,1.53
		c0.05,9.85,0.03,19.7,0.03,29.55c0,34.99,0,69.97,0,104.96c0,1.91-0.19,1.7,1.73,1.71c1.81,0.01,3.63,0.01,5.44,0.01
		c0,0.07,0,0.13,0,0.2c-2.06,0.01-4.12-0.05-6.17,0.05c-1.09,0.05-1.27-0.36-1.26-1.34c0.03-13.38,0.02-26.77,0.02-40.15
		C111.08,139.41,111.07,113.26,111.07,87.11z"/>
	<path class="st8" d="M56.65,189.02c-2.02-0.01-4.04,0.01-6.05-0.06c-0.88-0.03-1.13,0.28-1.11,1.13c0.04,3.17,0.02,6.35,0.02,9.52
		c-0.08,0-0.17,0-0.25,0c0.01-3.64,0.02-7.28,0.02-10.92c2.45,0.03,4.9,0.14,7.35-0.06C56.63,188.77,56.64,188.89,56.65,189.02z"/>
	<path class="st5" d="M121.99,206.78c0-3.52-0.01-7.04-0.01-10.56c2.14-0.01,4.28,0.01,6.41-0.04c0.76-0.02,0.99,0.24,0.98,0.99
		c-0.03,2.88-0.04,5.76,0,8.63c0.01,0.86-0.35,1.02-1.1,1.01C126.18,206.77,124.09,206.79,121.99,206.78z"/>
	<path class="st5" d="M147.43,74.45c0,1.44-0.03,2.88,0.01,4.32c0.02,0.71-0.25,0.92-0.94,0.91c-1.77-0.03-3.54-0.03-5.31,0
		c-0.65,0.01-0.98-0.13-0.97-0.88c0.03-2.96,0.03-5.92,0-8.89c0-0.65,0.24-0.86,0.87-0.85c1.81,0.03,3.62,0.03,5.43,0
		c0.72-0.01,0.92,0.28,0.9,0.95C147.41,71.49,147.43,72.97,147.43,74.45z"/>
	<path class="st5" d="M202.07,210.78c-0.02,3.52-0.04,7.04-0.06,10.56c-2.14,0.01-4.27-0.01-6.4,0.03c-0.67,0.01-0.95-0.18-0.94-0.9
		c0.03-2.91,0.03-5.83,0-8.74c-0.01-0.76,0.27-1,1-0.98C197.8,210.78,199.93,210.77,202.07,210.78z"/>
</g>
</svg>
