<?xml version="1.0" encoding="utf-8"?>
<!-- Generator: Adobe Illustrator 23.0.1, SVG Export Plug-In . SVG Version: 6.00 Build 0)  -->
<svg version="1.1" id="Layer_1" xmlns="http://www.w3.org/2000/svg" xmlns:xlink="http://www.w3.org/1999/xlink" x="0px" y="0px"
	 viewBox="0 0 247.29 278.9" style="enable-background:new 0 0 247.29 278.9;" xml:space="preserve">
<style type="text/css">
	.st0{fill:#462C6D;}
	.st1{fill:#664B8E;}
	.st2{fill:#472C6E;}
	.st3{fill:#674C8E;}
	.st4{fill:#674B8D;}
	.st5{fill:#472D6E;}
	.st6{fill:#674B8E;}
	.st7{fill:#7A639B;}
	.st8{fill:#685086;}
	.st9{fill:#939393;}
	.st10{fill:#E8E8E8;}
	.st11{fill:#FFFFFF;}
</style>
<g>
	<path class="st9" d="M247.29,182.23c-0.45,0.23-0.32,0.71-0.45,1.07c-0.82,2.28-3.16,3.71-5.44,3.29
		c-2.42-0.45-4.13-2.45-4.13-4.83c-0.01-2.47,1.84-4.54,4.36-4.89c2.24-0.31,4.48,1.18,5.25,3.42c0.14,0.4-0.06,0.92,0.42,1.2
		C247.29,181.74,247.29,181.98,247.29,182.23z"/>
	<path class="st9" d="M132.8,37.07c1.81,0.73,3.3,1.79,3.71,3.86c0.52,2.6-1,5.1-3.46,5.76c-2.58,0.69-5.16-0.71-5.98-3.25
		c-0.8-2.46,0.45-5.05,2.9-6.06c0.21-0.08,0.52,0.02,0.6-0.31C131.31,37.07,132.05,37.07,132.8,37.07z"/>
	<path class="st9" d="M186.46,241.83c-0.14-0.36-0.52-0.36-0.79-0.5c-2.14-1.12-3.19-3.48-2.53-5.72c0.65-2.24,2.8-3.76,5.03-3.56
		c2.37,0.21,4.23,1.94,4.51,4.18c0.31,2.48-0.98,4.55-3.37,5.36c-0.15,0.05-0.32,0.05-0.37,0.24
		C188.11,241.83,187.28,241.83,186.46,241.83z"/>
	<path class="st9" d="M156.28,206.71c0.01-3.4,0.02-6.79,0.03-10.19c2.46,0,4.91,0,7.37-0.01c0,3.66,0,7.32,0,10.98
		c-2.46-0.03-4.92-0.06-7.38-0.09C156.3,207.17,156.29,206.94,156.28,206.71z"/>
	<path class="st9" d="M90.98,196.53c0,3.63,0,7.25,0.01,10.88c-2.46,0-4.92,0-7.39,0c0-3.63,0.01-7.26,0.01-10.89
		C86.07,196.52,88.53,196.52,90.98,196.53z"/>
	<path class="st9" d="M10.91,145.7c0-3.57-0.01-7.13-0.01-10.7c2.14,0,4.28,0,6.42-0.01c0.53,0,0.98,0.01,0.98,0.75
		c-0.02,3.13-0.01,6.25-0.02,9.38c0,0.18-0.16,0.36-0.24,0.54C15.66,145.68,13.28,145.69,10.91,145.7z"/>
	<path class="st9" d="M65.54,87.56c0-3.62,0-7.25,0-10.87c2.39-0.02,4.77-0.03,7.16-0.05c0,3.64-0.01,7.29-0.01,10.93
		C70.31,87.56,67.93,87.56,65.54,87.56z"/>
	<path class="st9" d="M181.76,76.68c0,3.62,0,7.25,0,10.87c-2.38,0-4.77,0.01-7.15,0.01c0-3.64-0.01-7.29-0.01-10.93
		C176.98,76.65,179.37,76.67,181.76,76.68z"/>
	<path class="st9" d="M218.11,113.03c0,3.62,0,7.24,0,10.85c-2.39,0.01-4.77,0.01-7.16,0.02c0-3.64,0-7.28-0.01-10.92
		C213.33,113,215.72,113.02,218.11,113.03z"/>
	<path class="st9" d="M36.34,112.97c0,3.65,0,7.29-0.01,10.94c-2.38-0.01-4.77-0.01-7.15-0.02c0-3.62,0-7.24,0-10.86
		C31.57,113.01,33.96,112.99,36.34,112.97z"/>
	<path class="st9" d="M101.88,80.34c0-3.63-0.01-7.25-0.01-10.88c2.39-0.01,4.78-0.03,7.17-0.04c0.29,1.13,0.13,2.29,0.12,3.43
		c-0.03,2.5,0.17,5-0.11,7.5C106.66,80.34,104.27,80.34,101.88,80.34z"/>
	<path class="st9" d="M54.64,182.26c0,3.53,0,7.07,0.01,10.6c-2.38,0-4.77,0-7.15-0.01c-0.27-2.04-0.07-4.09-0.12-6.14
		c-0.03-1.27-0.01-2.55-0.01-3.82c0-0.38-0.03-0.79,0.52-0.77C50.14,182.2,52.39,181.93,54.64,182.26z"/>
	<path class="st9" d="M204.76,86.04c-2.67-0.01-4.87-2.17-4.9-4.84c-0.04-2.68,2.23-4.96,4.93-4.96c2.65,0.01,4.87,2.21,4.89,4.86
		C209.71,83.82,207.5,86.04,204.76,86.04z"/>
	<path class="st9" d="M173.13,59.84c-0.02,2.68-2.19,4.86-4.87,4.87c-2.7,0.01-4.97-2.28-4.93-4.96c0.04-2.67,2.23-4.84,4.91-4.85
		C170.97,54.88,173.15,57.08,173.13,59.84z"/>
	<path class="st9" d="M41.78,78.91c-2.69-0.01-4.86-2.15-4.89-4.84c-0.03-2.7,2.2-4.95,4.92-4.94c2.68,0.01,4.85,2.17,4.89,4.85
		C46.73,76.7,44.52,78.92,41.78,78.91z"/>
	<path class="st9" d="M137.51,228.93c-0.01,2.68-2.17,4.88-4.84,4.91c-2.7,0.03-4.95-2.22-4.93-4.94c0.01-2.7,2.17-4.86,4.85-4.88
		C135.34,224,137.51,226.18,137.51,228.93z"/>
	<path class="st9" d="M236.39,125.71c-0.02-2.75,2.17-4.97,4.89-4.95c2.68,0.01,4.84,2.17,4.87,4.86c0.03,2.73-2.17,4.94-4.9,4.94
		C238.56,130.54,236.41,128.4,236.39,125.71z"/>
	<path class="st9" d="M229.25,204.86c0.01,2.76-2.18,4.93-4.93,4.91c-2.69-0.02-4.85-2.18-4.86-4.87c-0.02-2.72,2.21-4.92,4.95-4.9
		C227.11,200.01,229.24,202.16,229.25,204.86z"/>
	<path class="st9" d="M10.15,173.76c-0.01,2.69-2.16,4.85-4.85,4.86c-2.74,0.02-4.96-2.19-4.95-4.91c0.02-2.73,2.24-4.89,4.99-4.86
		C8.02,168.89,10.16,171.07,10.15,173.76z"/>
	<path class="st9" d="M27.96,189.7c0.02,2.73-2.09,4.89-4.8,4.93c-2.77,0.03-4.99-2.14-4.98-4.88c0.01-2.7,2.17-4.86,4.88-4.87
		C25.78,184.86,27.95,186.99,27.96,189.7z"/>
	<path class="st9" d="M113.87,58.42c-2.74-0.03-4.87-2.24-4.82-5c0.05-2.68,2.23-4.77,4.95-4.75c2.69,0.03,4.84,2.2,4.84,4.87
		C118.84,56.26,116.61,58.45,113.87,58.42z"/>
	<path class="st9" d="M78.31,56.63c-2.72,0-4.87-2.12-4.88-4.84c-0.02-2.77,2.17-4.94,4.94-4.91c2.72,0.03,4.84,2.18,4.83,4.9
		C83.17,54.5,81.02,56.63,78.31,56.63z"/>
	<path class="st9" d="M174.89,234.28c-0.01,2.72-2.15,4.85-4.86,4.85c-2.76,0-4.9-2.18-4.86-4.96c0.03-2.7,2.21-4.82,4.92-4.79
		C172.79,229.41,174.9,231.56,174.89,234.28z"/>
	<path class="st9" d="M54.64,182.26c-2.02-0.01-4.04,0.01-6.05-0.06c-0.88-0.03-1.13,0.28-1.11,1.13c0.04,3.17,0.02,6.35,0.02,9.52
		c-0.08,0-0.17,0-0.25,0c0.01-3.64,0.02-7.28,0.02-10.92c2.45,0.03,4.9,0.14,7.35-0.06C54.62,182,54.63,182.13,54.64,182.26z"/>
	<path class="st9" d="M119.97,200.02c0-3.52-0.01-7.04-0.01-10.56c2.14-0.01,4.28,0.01,6.41-0.04c0.76-0.02,0.99,0.24,0.98,0.99
		c-0.03,2.88-0.04,5.76,0,8.63c0.01,0.86-0.35,1.02-1.1,1.01C124.17,200,122.07,200.02,119.97,200.02z"/>
	<path class="st9" d="M145.41,67.68c0,1.44-0.03,2.88,0.01,4.32c0.02,0.71-0.25,0.92-0.94,0.91c-1.77-0.03-3.54-0.03-5.31,0
		c-0.65,0.01-0.98-0.13-0.97-0.88c0.03-2.96,0.03-5.92,0-8.89c0-0.65,0.24-0.86,0.87-0.85c1.81,0.03,3.62,0.03,5.43,0
		c0.72-0.01,0.92,0.28,0.9,0.95C145.39,64.72,145.41,66.2,145.41,67.68z"/>
	<path class="st9" d="M200.05,204.01c-0.02,3.52-0.04,7.04-0.06,10.56c-2.14,0.01-4.27-0.01-6.4,0.03c-0.67,0.01-0.95-0.18-0.94-0.9
		c0.03-2.91,0.03-5.83,0-8.74c-0.01-0.76,0.27-1,1-0.98C195.78,204.02,197.92,204,200.05,204.01z"/>
	<path class="st10" d="M29.19,123.89c-0.02,0.53-0.05,1.07-0.05,1.6c0,17.17-0.01,34.34,0.02,51.51c0,1.11-0.25,1.48-1.41,1.45
		c-2.76-0.09-5.52-0.08-8.28,0c-1.05,0.03-1.29-0.31-1.29-1.32c0.04-10.01,0.02-20.01,0.02-30.02c0-0.49,0.1-0.99-0.17-1.45
		c-0.25-2.7-0.06-5.41-0.1-8.12c-0.03-2.16-0.01-2.15-2.17-2.16c-1.64-0.01-3.28,0.03-4.93-0.02c-3.15,0.07-6.3,0.02-9.44,0.02
		c-0.49,0-0.99-0.03-1.38-0.39c0-0.08,0-0.16,0-0.25c5.8,0,11.59-0.01,17.39,0.03c0.95,0.01,0.81-0.55,0.81-1.12
		c0-6.42,0.02-12.83-0.02-19.25c-0.01-1.07,0.2-1.48,1.39-1.44c3.2,0.1,6.41,0.05,9.62,0.07c0.39,0.39,0.38,0.89,0.38,1.38
		c0.02,2.7,0.02,5.4,0,8.09C29.57,123,29.53,123.49,29.19,123.89z"/>
	<path class="st10" d="M247.29,171.1c-3.29,0-6.58-0.02-9.87,0.03c-0.78,0.01-1.04-0.18-1.04-1.01c0.03-11.44,0.03-22.88,0-34.32
		c0-0.82,0.25-1.03,1.04-1.03c3.29,0.03,6.58-0.01,9.87-0.03C247.29,146.87,247.29,158.99,247.29,171.1z"/>
	<path class="st10" d="M0,135c3.63,0,7.26,0.01,10.89,0.01c0.36,0.4,0.38,0.9,0.38,1.39c0.02,2.63,0.01,5.26,0,7.9
		c0,0.5-0.06,0.99-0.37,1.41c-0.01,5.68-0.03,11.36,0.01,17.04c0.01,0.92-0.22,1.18-1.16,1.17c-3.25-0.05-6.5,0-9.75,0.02
		C0,154.29,0,144.64,0,135z"/>
	<path class="st10" d="M119.95,189.12c2.22,0.24,4.44,0.04,6.66,0.11c0.54,0.02,0.75-0.21,0.71-0.73c-0.02-0.33,0-0.66,0-0.99
		c0-43.69,0.01-87.37-0.03-131.06c0-1.3,0.33-1.64,1.61-1.59c2.76,0.1,5.52,0.06,8.28,0.01c0.81-0.01,1.07,0.22,1.04,1.03
		c-0.06,1.61,0.05,3.22-0.04,4.82c-0.06,1.04,0.17,1.39,1.32,1.38c5.19-0.06,10.38-0.01,15.58,0.02c0.38,0,0.82-0.19,1.16,0.18
		c-0.5,0.49-1.15,0.39-1.75,0.39c-2.31,0.02-4.61-0.01-6.92,0.01c-1.35,0.01-1.46,0.14-1.5,1.5c-0.01,0.37,0,0.74,0,1.11
		c0,46.26,0,92.52,0,138.78c0,2.93-0.14,2.7,2.66,2.71c1.52,0,3.03,0.04,4.53-0.37c0.94-0.26,1.96-0.26,2.92,0.11
		c0.33,0.24,0.34,0.54,0.14,0.86c-3.38,0.01-6.76,0.01-10.13,0.05c-0.63,0.01-0.79-0.25-0.74-0.81c0.03-0.33,0-0.66,0-0.99
		c0-43.68-0.01-87.37,0.03-131.05c0-1.26-0.31-1.62-1.55-1.53c-1.6,0.11-3.21,0.06-4.82,0.01c-0.7-0.02-0.98,0.21-0.9,0.91
		c0.04,0.33,0.01,0.66,0.01,0.99c0,46.03,0,92.06,0,138.1c0,1.83,0.24,1.61-1.67,1.62c-2.51,0.01-5.03,0-7.54,0
		c-1.67,0-1.67,0-1.67-1.73c0-3.87-0.02-7.75,0.02-11.62c0.01-0.85-0.21-1.12-1.09-1.11c-3.25,0.04-6.51,0-9.76-0.01
		c-0.06-0.17,0-0.29,0.15-0.37c1.11-0.36,2.24-0.14,3.37-0.19c1.89-0.06,3.78-0.04,5.67-0.02c0.95,0.01,1.32-0.36,1.31-1.31
		c-0.03-2.42-0.03-4.85,0-7.28c0.01-0.97-0.4-1.32-1.33-1.3c-1.36,0.03-2.71,0.02-4.07,0c-0.53-0.01-1.07,0.04-1.56-0.26
		C119.89,189.41,119.86,189.27,119.95,189.12z"/>
	<path class="st10" d="M174.6,87.56c-0.01,0.58-0.03,1.15-0.03,1.73c0,43.71,0,87.43,0,131.14c0,1.77,0.23,1.54-1.6,1.55
		c-2.76,0.01-5.52-0.02-8.28,0.02c-0.8,0.01-1.06-0.21-1.05-1.04c0.05-4.49,0.04-8.98,0.04-13.47c-0.33-0.42-0.37-0.91-0.37-1.41
		c-0.01-2.72-0.01-5.44,0-8.16c0-0.5,0.05-0.99,0.37-1.41c-0.01-0.37-0.02-0.74-0.02-1.11c0-41.49,0.01-82.98-0.03-124.47
		c0-1.24,0.28-1.6,1.54-1.55c2.8,0.11,5.6,0.06,8.4,0.01c0.83-0.02,1.04,0.26,1.02,1.05c-0.04,2.06,0,4.12,0,6.18
		c0.36,0.4,0.38,0.9,0.39,1.39c0.01,2.71,0.01,5.43,0,8.14C174.98,86.66,174.93,87.15,174.6,87.56z"/>
	<path class="st10" d="M181.76,76.68c3.38-0.01,6.75-0.01,10.13-0.05c0.64-0.01,0.91,0.19,0.84,0.84c-0.03,0.33-0.01,0.66-0.01,0.99
		c0,41.26,0.01,82.52-0.03,123.79c0,1.27,0.31,1.61,1.55,1.53c1.93-0.12,3.87-0.06,5.8-0.07c0.09,0.15,0.06,0.29-0.07,0.4
		c-1.44,0.53-2.93,0.22-4.39,0.25c-2.78,0.06-2.54-0.13-2.55,2.54c-0.01,2.01,0.02,4.03-0.01,6.04c-0.01,0.95,0.38,1.31,1.32,1.31
		c1.93-0.02,3.86-0.04,5.8,0.01c1.95-0.07,3.89-0.03,5.84-0.02c0.48,0,0.99-0.01,1.34,0.42c-2.33,0.35-4.67,0.11-7.01,0.14
		c-2.18,0.04-4.37,0.01-6.55-0.05c-0.81-0.02-1.07,0.23-1.06,1.05c0.04,2.92-0.02,5.85,0.04,8.78c0.02,0.89-0.28,1.11-1.13,1.1
		c-2.92-0.04-5.85-0.04-8.78,0c-0.78,0.01-1.18-0.19-1.05-1.04c0.04-0.28,0.01-0.58,0.01-0.86c0-44.83,0-89.66,0-134.49
		c0-0.58-0.03-1.15-0.04-1.73c-0.33-0.41-0.38-0.9-0.38-1.39c-0.01-2.7-0.02-5.4,0-8.1C181.37,77.57,181.36,77.07,181.76,76.68z"/>
	<path class="st10" d="M83.6,207.4c-3.38,0.01-6.75,0.02-10.13,0.05c-0.6,0.01-0.81-0.21-0.76-0.79c0.03-0.33,0.01-0.66,0.01-0.99
		c0-38.8,0-77.59,0-116.39c0-0.58-0.02-1.15-0.03-1.73c-0.33-0.41-0.38-0.9-0.38-1.4c-0.01-2.71-0.01-5.43,0-8.14
		c0-0.5,0.03-0.99,0.39-1.39c0.01-4.41,0.04-8.82,0-13.23c-0.01-0.98,0.18-1.36,1.26-1.33c2.88,0.08,5.77,0.05,8.65,0.01
		c0.81-0.01,1.08,0.22,1.04,1.04c-0.07,1.27-0.02,2.55-0.02,3.83c0,42.77,0,85.55,0,128.32c0,0.41-0.01,0.82-0.02,1.24
		c0.34,0.45,0.37,0.99,0.37,1.52c0.01,2.62,0.01,5.24,0,7.86C83.97,206.42,84.02,206.98,83.6,207.4z"/>
	<path class="st10" d="M156.28,206.71c-3.07-0.1-6.07,0.77-9.16,0.54c-1.18-0.09-1.49-0.36-1.49-1.54
		c0.03-45.11,0.03-90.23,0.03-135.34c0-2.31,0.04-4.62-0.02-6.92c-0.03-0.94,0.29-1.19,1.2-1.18c3.13,0.05,6.26,0.02,9.39,0.02
		c0.03,0.37,0.09,0.73,0.09,1.1c0,44.29,0.01,88.59,0.01,132.88c0,0.08-0.01,0.16-0.01,0.25c0.32,0.42,0.37,0.91,0.37,1.4
		c0.01,2.47,0.02,4.93,0,7.4C156.67,205.82,156.69,206.33,156.28,206.71z"/>
	<path class="st10" d="M101.88,80.34c-0.02,0.53-0.04,1.07-0.04,1.6c0,41.31-0.01,82.63,0.03,123.94c0,1.31-0.34,1.64-1.62,1.59
		c-3.08-0.11-6.18-0.06-9.26-0.07c-0.39-0.39-0.37-0.9-0.37-1.38c-0.02-2.7-0.01-5.4,0-8.1c0-0.5,0.05-0.98,0.37-1.4
		c0-18.55-0.01-37.09-0.01-55.64c0-19.66,0-39.32,0-58.97c0-3.83-0.01-7.66-0.07-11.49c-0.01-0.87,0.25-1.14,1.12-1.11
		c3.29,0.12,6.58-0.15,9.87,0.15c0.36,0.4,0.4,0.89,0.4,1.38c0.01,2.7,0.02,5.41,0,8.11C102.27,79.44,102.26,79.94,101.88,80.34z"/>
	<path class="st10" d="M119.95,189.12c0,0.11,0.01,0.22,0.01,0.33c0.35,0.36,0.35,0.82,0.36,1.27c0.02,2.67,0.02,5.34,0,8.01
		c0,0.45-0.02,0.91-0.35,1.28c-1.16,0.01-2.33,0.01-3.49,0.02c-2.21,0.27-4.43,0.05-6.65,0.12c-0.48,0.02-0.67-0.19-0.65-0.66
		c0.02-0.37,0-0.74,0-1.11c0-38.76,0.02-77.53-0.04-116.29c-0.01-3.28-0.24-6.57-0.17-9.86c0.07-3.08,0.29-6.16,0.21-9.24
		c-0.01-0.44-0.01-0.84,0.62-0.82c3.37,0.09,6.74-0.16,10.11,0.13c0.02,0.37,0.07,0.74,0.07,1.1c0,41.66,0,83.31,0,124.97
		C119.97,188.63,119.96,188.87,119.95,189.12z"/>
	<path class="st10" d="M207.31,214.66c-2.44-0.03-4.88-0.06-7.32-0.09c-0.34-0.42-0.32-0.92-0.32-1.41c-0.01-2.55-0.01-5.09,0-7.64
		c0-0.53-0.02-1.08,0.38-1.51c0-0.1,0-0.2-0.01-0.3c0-36.99,0.01-73.98-0.03-110.97c0-1.19,0.19-1.62,1.51-1.57
		c2.75,0.12,5.52,0.08,8.28,0.01c0.93-0.02,1.16,0.24,1.15,1.16c-0.04,6.88-0.01,13.76-0.01,20.64c0.35,0.4,0.38,0.9,0.38,1.39
		c0.01,2.71,0.01,5.42,0,8.13c0,0.5-0.05,0.99-0.38,1.4c-0.01,4.53-0.02,9.06-0.02,13.59c0,25.28-0.01,50.56,0.03,75.84
		c0,1.16-0.32,1.52-1.43,1.39C208.8,214.63,208.05,214.68,207.31,214.66z"/>
	<path class="st10" d="M65.54,87.56c-0.02,0.53-0.04,1.07-0.04,1.6c0,30.51,0,61.02,0,91.53c0,3.75,0.03,7.49,0.03,11.24
		c0,0.46,0.19,1.03-0.65,1.02c-3.41-0.05-6.83-0.06-10.24-0.09c-0.2-0.22-0.33-0.48-0.33-0.77c-0.03-3.26-0.19-6.51,0.08-9.77
		c0.07-0.15,0.14-0.29,0.21-0.44c-0.02-0.41-0.05-0.82-0.05-1.23c0-34.15,0-68.29,0-102.44c0-1.81-0.19-1.55,1.59-1.55
		c3.13-0.01,6.26,0.02,9.39,0.03c0.39,0.39,0.38,0.89,0.38,1.38c0.02,2.7,0.02,5.4,0,8.1C65.92,86.66,65.88,87.15,65.54,87.56z"/>
	<path class="st10" d="M47.23,192.85c-3.38,0.02-6.75,0.02-10.13,0.06c-0.6,0.01-0.82-0.19-0.76-0.78c0.03-0.33,0.01-0.66,0.01-0.99
		c0-22.41-0.01-44.82-0.01-67.22c-0.33-0.41-0.37-0.9-0.38-1.4c-0.01-2.71-0.01-5.43,0-8.14c0-0.5,0.03-0.99,0.38-1.4
		c0-9.23,0.02-18.45-0.02-27.67c-0.01-1.1,0.28-1.38,1.36-1.35c2.84,0.08,5.68,0.06,8.52,0.01c0.88-0.02,1.1,0.25,1.09,1.11
		c-0.04,5.11-0.02,10.21-0.02,15.32c0,27.18-0.01,54.36-0.01,81.54c0.29,0.38,0.32,0.83,0.32,1.29c0.01,2.79,0.01,5.57,0,8.36
		C47.58,192.03,47.58,192.49,47.23,192.85z"/>
	<path class="st10" d="M218.11,113.03c3.38-0.01,6.76-0.01,10.13-0.04c0.63-0.01,0.93,0.18,0.85,0.83c-0.02,0.2,0,0.41,0,0.62
		c0,25.67-0.01,51.35,0.03,77.02c0,1.22-0.33,1.51-1.5,1.47c-2.68-0.09-5.36-0.09-8.03,0c-1.13,0.04-1.43-0.28-1.42-1.42
		c0.04-22.01,0.03-44.01,0.02-66.02c0-0.53-0.05-1.07-0.08-1.6c-0.35-0.4-0.39-0.89-0.39-1.38c-0.01-2.7-0.02-5.4,0-8.09
		C217.73,113.92,217.72,113.42,218.11,113.03z"/>
	<path class="st10" d="M109.05,80.34c0-3.64-0.01-7.28-0.01-10.93c0.01-2.13,0.02-4.26,0.02-6.39c0-0.53-0.01-0.96,0.74-0.95
		c3.24,0.03,6.48,0.01,9.71,0.02c0.17,0,0.32,0.04,0.39,0.22c-3.05,0-6.1,0.06-9.15-0.03c-1.23-0.04-1.48,0.37-1.47,1.53
		c0.05,9.85,0.03,19.7,0.03,29.55c0,34.99,0,69.97,0,104.96c0,1.91-0.19,1.7,1.73,1.71c1.81,0.01,3.63,0.01,5.44,0.01
		c0,0.07,0,0.13,0,0.2c-2.06,0.01-4.12-0.05-6.17,0.05c-1.09,0.05-1.27-0.36-1.26-1.34c0.03-13.38,0.02-26.77,0.02-40.15
		C109.06,132.64,109.06,106.49,109.05,80.34z"/>
</g>
</svg>
