<?xml version="1.0" encoding="UTF-8" standalone="no"?>
<!-- Generator: Adobe Illustrator 23.0.1, SVG Export Plug-In . SVG Version: 6.00 Build 0)  -->

<svg
   version="1.1"
   id="Layer_1"
   x="0px"
   y="0px"
   viewBox="0 0 1207.84 278.89"
   xml:space="preserve"
   sodipodi:docname="uikit-logotipo-mobile-bw.svg"
   inkscape:version="1.2.1 (9c6d41e410, 2022-07-14)"
   width="1207.84"
   height="278.89001"
   inkscape:export-filename="uikit-logotipo.svg"
   inkscape:export-xdpi="96"
   inkscape:export-ydpi="96"
   xmlns:inkscape="http://www.inkscape.org/namespaces/inkscape"
   xmlns:sodipodi="http://sodipodi.sourceforge.net/DTD/sodipodi-0.dtd"
   xmlns="http://www.w3.org/2000/svg"
   xmlns:svg="http://www.w3.org/2000/svg"><g
   aria-label="MAPA DE  RELAÇÕES"
   transform="matrix(2.0472587,0,0,2.0472587,230.50152,455.2045)"
   id="text6299"
   style="font-size:40px;line-height:1.25;white-space:pre;shape-inside:url(#rect6301);fill:#015efd;fill-opacity:1"><g
     aria-label="MAPA DE RELAÇÕES"
     transform="matrix(0.72997011,0,0,0.72997011,-134.30404,-78.326321)"
     id="text1527"
     style="font-size:96px;shape-inside:url(#rect1529);fill:#003795"><g
       id="g36873"
       transform="matrix(0.91440949,0,0,0.91440949,-90.280462,1.8956156)"
       style="fill:#f2f2f2;fill-opacity:1"><g
         id="g35034"
         transform="matrix(2.0996629,0,0,-2.0996629,153.21469,-84.052979)"
         style="fill:#f2f2f2;fill-opacity:1"><path
           d="M 0,0 3.171,6.831 C 6.1,4.94 10.551,3.659 14.577,3.659 c 4.391,0 6.037,1.159 6.037,2.989 0,5.367 -19.821,-0.122 -19.821,12.99 0,6.222 5.611,10.613 15.187,10.613 4.513,0 9.514,-1.037 12.625,-2.867 l -3.171,-6.77 c -3.233,1.83 -6.466,2.44 -9.454,2.44 -4.27,0 -6.099,-1.342 -6.099,-3.049 0,-5.612 19.822,-0.183 19.822,-13.114 C 29.703,0.793 24.03,-3.538 14.211,-3.538 8.661,-3.538 3.049,-2.013 0,0"
           style="fill:#f2f2f2;fill-opacity:1;fill-rule:nonzero;stroke:none"
           id="path35036" /></g><g
         id="g35038"
         transform="matrix(2.0996629,0,0,-2.0996629,289.87418,-117.0914)"
         style="fill:#f2f2f2;fill-opacity:1"><path
           d="m 0,0 v -18.785 h -9.515 v 17.322 c 0,5.305 -2.44,7.745 -6.648,7.745 -4.574,0 -7.867,-2.805 -7.867,-8.844 v -16.223 h -9.515 v 32.813 h 9.088 v -3.842 c 2.561,2.805 6.403,4.33 10.856,4.33 C -5.855,14.516 0,10.002 0,0"
           style="fill:#f2f2f2;fill-opacity:1;fill-rule:nonzero;stroke:none"
           id="path35040" /></g><path
         d="m 298.25561,-146.54505 h 19.9783 v 68.89625 h -19.9783 z m -2.43142,-20.74677 c 0,-6.2738 4.99301,-11.13872 12.4216,-11.13872 7.42653,0 12.42161,4.60876 12.42161,10.75658 0,6.65802 -4.99508,11.52505 -12.42161,11.52505 -7.42859,0 -12.4216,-4.86703 -12.4216,-11.14291"
         style="fill:#f2f2f2;fill-opacity:1;fill-rule:nonzero;stroke:none;stroke-width:2.09966"
         id="path35042" /><g
         id="g35044"
         transform="matrix(2.0996629,0,0,-2.0996629,382.05378,-112.09797)"
         style="fill:#f2f2f2;fill-opacity:1"><path
           d="m 0,0 c 0,5.672 -3.599,9.088 -8.356,9.088 -4.757,0 -8.355,-3.416 -8.355,-9.088 0,-5.672 3.598,-9.088 8.355,-9.088 C -3.599,-9.088 0,-5.672 0,0 m 9.636,0 c 0,-10.308 -7.135,-16.895 -16.345,-16.895 -4.086,0 -7.44,1.281 -9.88,3.965 v -15.309 h -9.515 v 44.645 h 9.088 v -3.781 c 2.379,2.866 5.916,4.269 10.307,4.269 9.21,0 16.345,-6.587 16.345,-16.894"
           style="fill:#f2f2f2;fill-opacity:1;fill-rule:nonzero;stroke:none"
           id="path35046" /></g><g
         id="g35048"
         transform="matrix(2.0996629,0,0,-2.0996629,425.85821,-118.11646)"
         style="fill:#f2f2f2;fill-opacity:1"><path
           d="M 0,0 H 16.163 C 15.491,4.147 12.38,6.831 8.112,6.831 3.781,6.831 0.67,4.208 0,0 M 24.945,-5.55 H 0.122 c 0.915,-4.087 4.391,-6.587 9.392,-6.587 3.478,0 5.977,1.037 8.234,3.171 l 5.062,-5.489 c -3.049,-3.476 -7.624,-5.306 -13.539,-5.306 -11.345,0 -18.725,7.136 -18.725,16.895 0,9.818 7.502,16.894 17.505,16.894 9.636,0 17.077,-6.466 17.077,-17.017 0,-0.732 -0.121,-1.769 -0.183,-2.561"
           style="fill:#f2f2f2;fill-opacity:1;fill-rule:nonzero;stroke:none"
           id="path35050" /></g><g
         id="g35052"
         transform="matrix(2.0996629,0,0,-2.0996629,525.80152,-147.57032)"
         style="fill:#f2f2f2;fill-opacity:1"><path
           d="m 0,0 v -8.783 c -0.792,0.061 -1.402,0.122 -2.134,0.122 -5.246,0 -8.722,-2.866 -8.722,-9.149 v -15.491 h -9.515 v 32.813 h 9.088 V -4.819 C -8.966,-1.647 -5.063,0 0,0"
           style="fill:#f2f2f2;fill-opacity:1;fill-rule:nonzero;stroke:none"
           id="path35054" /></g><g
         id="g35056"
         transform="matrix(2.0996629,0,0,-2.0996629,657.67505,-129.70366)"
         style="fill:#f2f2f2;fill-opacity:1"><path
           d="m 0,0 h -5.619 c 0.5,-1.925 0.767,-3.945 0.767,-6.03 0,-5.867 -2.112,-11.242 -5.619,-15.404 l 3.838,-3.934 c 1.887,2.158 3.461,4.593 4.658,7.235 0.092,0.206 0.183,0.415 0.271,0.621 0.069,0.16 0.137,0.324 0.202,0.488 0.065,0.16 0.126,0.32 0.187,0.481 0.004,0.015 0.011,0.034 0.019,0.053 1.098,2.878 1.753,5.973 1.887,9.202 0.008,0.217 0.015,0.434 0.023,0.652 0.004,0.221 0.007,0.446 0.007,0.667 v 0.08 C 0.614,-3.869 0.4,-1.898 0,0"
           style="fill:#f2f2f2;fill-opacity:1;fill-rule:evenodd;stroke:none"
           id="path35058" /></g><g
         id="g35060"
         transform="matrix(2.0996629,0,0,-2.0996629,598.31233,-178.77403)"
         style="fill:#f2f2f2;fill-opacity:1"><path
           d="m 0,0 c -0.088,0.004 -0.175,0.008 -0.263,0.004 v -5.47 c 9.617,-0.096 17.87,-5.867 21.583,-14.123 h 5.897 C 23.233,-8.325 12.579,-0.213 0,0"
           style="fill:#f2f2f2;fill-opacity:1;fill-rule:evenodd;stroke:none"
           id="path35062" /></g><g
         id="g35064"
         transform="matrix(2.0996629,0,0,-2.0996629,633.8315,-136.84251)"
         style="fill:#f2f2f2;fill-opacity:1"><path
           d="m 0,0 h -8.127 c -2.405,2.653 -5.908,4.338 -9.815,4.365 v 6.75 C -10.021,11.073 -3.194,6.545 0,0"
           style="fill:#f2f2f2;fill-opacity:1;fill-rule:evenodd;stroke:none"
           id="path35066" /></g><g
         id="g35068"
         transform="matrix(2.0996629,0,0,-2.0996629,637.89874,-119.37878)"
         style="fill:#f2f2f2;fill-opacity:1"><path
           d="m 0,0 c 0,-0.883 -0.053,-1.739 -0.171,-2.582 -0.185,-1.304 -0.488,-2.569 -0.922,-3.781 -2.701,-7.628 -10.145,-13.122 -18.892,-13.122 -1.555,0 -3.057,0.172 -4.506,0.501 l -3.109,-5.257 -1.12,-1.87 h -7.509 l 2.793,4.716 2.885,4.848 c -3.847,2.345 -6.824,5.929 -8.339,10.184 h 7.311 c 2.24,-3.992 6.587,-6.679 11.594,-6.679 4.993,0 9.34,2.687 11.593,6.679 0.659,1.159 1.133,2.424 1.396,3.768 h -32.803 v 0.013 c -0.119,0.843 -0.172,1.699 -0.172,2.582 0,9.723 7.299,17.772 16.85,19.234 v -6.863 c -4.216,-1.002 -7.628,-3.953 -9.195,-7.839 H -0.553 C -0.198,3.083 0,1.555 0,0"
           style="fill:#b3b3b3;fill-opacity:1;fill-rule:evenodd;stroke:none"
           id="path35070" /></g></g></g></g><defs
   id="defs77"><rect
     x="221.20462"
     y="-155.93114"
     width="682.65198"
     height="184.03499"
     id="rect1529" /><rect
     x="56.207729"
     y="-199.44679"
     width="129.64043"
     height="106.97601"
     id="rect6301" /><rect
     x="32.636745"
     y="-172.2495"
     width="1087.8916"
     height="194.00732"
     id="rect1851" /><rect
     x="68.778664"
     y="376.33609"
     width="264.08411"
     height="76.564926"
     id="rect1970" /><clipPath
     clipPathUnits="userSpaceOnUse"
     id="clipPath3436"><g
       id="g3440"
       transform="translate(-83.4082,-268.62)"><path
         d="M 0,540 H 960 V 0 H 0 Z"
         id="path3438" /></g></clipPath><clipPath
     clipPathUnits="userSpaceOnUse"
     id="clipPath3430"><g
       id="g3434"
       transform="translate(-139.496,-282.1796)"><path
         d="M 0,540 H 960 V 0 H 0 Z"
         id="path3432" /></g></clipPath><clipPath
     clipPathUnits="userSpaceOnUse"
     id="clipPath3424"><g
       id="g3428"><path
         d="M 0,540 H 960 V 0 H 0 Z"
         id="path3426" /></g></clipPath><clipPath
     clipPathUnits="userSpaceOnUse"
     id="clipPath3418"><g
       id="g3422"
       transform="translate(-177.3284,-280.1302)"><path
         d="M 0,540 H 960 V 0 H 0 Z"
         id="path3420" /></g></clipPath><clipPath
     clipPathUnits="userSpaceOnUse"
     id="clipPath3412"><g
       id="g3416"
       transform="translate(-195.3067,-282.6003)"><path
         d="M 0,540 H 960 V 0 H 0 Z"
         id="path3414" /></g></clipPath><clipPath
     clipPathUnits="userSpaceOnUse"
     id="clipPath3406"><g
       id="g3410"
       transform="translate(-236.3254,-294.6888)"><path
         d="M 0,540 H 960 V 0 H 0 Z"
         id="path3408" /></g></clipPath><clipPath
     clipPathUnits="userSpaceOnUse"
     id="clipPath3400"><g
       id="g3404"
       transform="translate(-82.6367,-243.709)"><path
         d="M 0,540 H 960 V 0 H 0 Z"
         id="path3402" /></g></clipPath><clipPath
     clipPathUnits="userSpaceOnUse"
     id="clipPath3394"><g
       id="g3398"><path
         d="M 0,540 H 960 V 0 H 0 Z"
         id="path3396" /></g></clipPath><clipPath
     clipPathUnits="userSpaceOnUse"
     id="clipPath3388"><g
       id="g3392"
       transform="translate(-90.0293,-243.542)"><path
         d="M 0,540 H 960 V 0 H 0 Z"
         id="path3390" /></g></clipPath><clipPath
     clipPathUnits="userSpaceOnUse"
     id="clipPath3382"><g
       id="g3386"
       transform="translate(-97.373,-243.3516)"><path
         d="M 0,540 H 960 V 0 H 0 Z"
         id="path3384" /></g></clipPath><clipPath
     clipPathUnits="userSpaceOnUse"
     id="clipPath3376"><g
       id="g3380"
       transform="translate(-98.7715,-245.5859)"><path
         d="M 0,540 H 960 V 0 H 0 Z"
         id="path3378" /></g></clipPath><clipPath
     clipPathUnits="userSpaceOnUse"
     id="clipPath3370"><g
       id="g3374"
       transform="translate(-110.2617,-245.5537)"><path
         d="M 0,540 H 960 V 0 H 0 Z"
         id="path3372" /></g></clipPath><clipPath
     clipPathUnits="userSpaceOnUse"
     id="clipPath3364"><g
       id="g3368"
       transform="translate(-114.1465,-244.4482)"><path
         d="M 0,540 H 960 V 0 H 0 Z"
         id="path3366" /></g></clipPath><clipPath
     clipPathUnits="userSpaceOnUse"
     id="clipPath3358"><g
       id="g3362"
       transform="translate(-123.6426,-248.6855)"><path
         d="M 0,540 H 960 V 0 H 0 Z"
         id="path3360" /></g></clipPath><clipPath
     clipPathUnits="userSpaceOnUse"
     id="clipPath3352"><g
       id="g3356"
       transform="translate(-127.709,-244.4482)"><path
         d="M 0,540 H 960 V 0 H 0 Z"
         id="path3354" /></g></clipPath><clipPath
     clipPathUnits="userSpaceOnUse"
     id="clipPath3346"><g
       id="g3350"
       transform="translate(-129.6895,-245.2441)"><path
         d="M 0,540 H 960 V 0 H 0 Z"
         id="path3348" /></g></clipPath><clipPath
     clipPathUnits="userSpaceOnUse"
     id="clipPath3340"><g
       id="g3344"><path
         d="M 0,540 H 960 V 0 H 0 Z"
         id="path3342" /></g></clipPath><clipPath
     clipPathUnits="userSpaceOnUse"
     id="clipPath3334"><g
       id="g3338"
       transform="translate(-140.2637,-245.2441)"><path
         d="M 0,540 H 960 V 0 H 0 Z"
         id="path3336" /></g></clipPath><clipPath
     clipPathUnits="userSpaceOnUse"
     id="clipPath3328"><g
       id="g3332"
       transform="translate(-146.4844,-245.5537)"><path
         d="M 0,540 H 960 V 0 H 0 Z"
         id="path3330" /></g></clipPath><clipPath
     clipPathUnits="userSpaceOnUse"
     id="clipPath3322"><g
       id="g3326"
       transform="translate(-150.3574,-244.4482)"><path
         d="M 0,540 H 960 V 0 H 0 Z"
         id="path3324" /></g></clipPath><clipPath
     clipPathUnits="userSpaceOnUse"
     id="clipPath3316"><g
       id="g3320"><path
         d="M 0,540 H 960 V 0 H 0 Z"
         id="path3318" /></g></clipPath><clipPath
     clipPathUnits="userSpaceOnUse"
     id="clipPath3310"><g
       id="g3314"
       transform="translate(-160.332,-245.2441)"><path
         d="M 0,540 H 960 V 0 H 0 Z"
         id="path3312" /></g></clipPath><clipPath
     clipPathUnits="userSpaceOnUse"
     id="clipPath3304"><g
       id="g3308"
       transform="translate(-163.332,-245.5859)"><path
         d="M 0,540 H 960 V 0 H 0 Z"
         id="path3306" /></g></clipPath><clipPath
     clipPathUnits="userSpaceOnUse"
     id="clipPath3298"><g
       id="g3302"><path
         d="M 0,540 H 960 V 0 H 0 Z"
         id="path3300" /></g></clipPath><clipPath
     clipPathUnits="userSpaceOnUse"
     id="clipPath3292"><g
       id="g3296"
       transform="translate(-176.6016,-245.5537)"><path
         d="M 0,540 H 960 V 0 H 0 Z"
         id="path3294" /></g></clipPath><clipPath
     clipPathUnits="userSpaceOnUse"
     id="clipPath3286"><g
       id="g3290"
       transform="translate(-181.7695,-247.3662)"><path
         d="M 0,540 H 960 V 0 H 0 Z"
         id="path3288" /></g></clipPath><clipPath
     clipPathUnits="userSpaceOnUse"
     id="clipPath3280"><g
       id="g3284"
       transform="translate(-183.0176,-245.5859)"><path
         d="M 0,540 H 960 V 0 H 0 Z"
         id="path3282" /></g></clipPath><clipPath
     clipPathUnits="userSpaceOnUse"
     id="clipPath3274"><g
       id="g3278"
       transform="translate(-186.9785,-243.542)"><path
         d="M 0,540 H 960 V 0 H 0 Z"
         id="path3276" /></g></clipPath><clipPath
     clipPathUnits="userSpaceOnUse"
     id="clipPath3268"><g
       id="g3272"
       transform="translate(-194.3203,-243.3516)"><path
         d="M 0,540 H 960 V 0 H 0 Z"
         id="path3270" /></g></clipPath><clipPath
     clipPathUnits="userSpaceOnUse"
     id="clipPath3262"><g
       id="g3266"><path
         d="M 0,540 H 960 V 0 H 0 Z"
         id="path3264" /></g></clipPath><clipPath
     clipPathUnits="userSpaceOnUse"
     id="clipPath3256"><g
       id="g3260"
       transform="translate(-200.7441,-245.3711)"><path
         d="M 0,540 H 960 V 0 H 0 Z"
         id="path3258" /></g></clipPath><clipPath
     clipPathUnits="userSpaceOnUse"
     id="clipPath3250"><g
       id="g3254"
       transform="translate(-205.6582,-244.4482)"><path
         d="M 0,540 H 960 V 0 H 0 Z"
         id="path3252" /></g></clipPath><clipPath
     clipPathUnits="userSpaceOnUse"
     id="clipPath3244"><g
       id="g3248"
       transform="translate(-210.9863,-244.5039)"><path
         d="M 0,540 H 960 V 0 H 0 Z"
         id="path3246" /></g></clipPath><clipPath
     clipPathUnits="userSpaceOnUse"
     id="clipPath3238"><g
       id="g3242"
       transform="translate(-215.3125,-244.4482)"><path
         d="M 0,540 H 960 V 0 H 0 Z"
         id="path3240" /></g></clipPath><clipPath
     clipPathUnits="userSpaceOnUse"
     id="clipPath3232"><g
       id="g3236"
       transform="translate(-220.8145,-245.2441)"><path
         d="M 0,540 H 960 V 0 H 0 Z"
         id="path3234" /></g></clipPath><clipPath
     clipPathUnits="userSpaceOnUse"
     id="clipPath3226"><g
       id="g3230"
       transform="translate(-86.7227,-238.1914)"><path
         d="M 0,540 H 960 V 0 H 0 Z"
         id="path3228" /></g></clipPath><clipPath
     clipPathUnits="userSpaceOnUse"
     id="clipPath3220"><g
       id="g3224"
       transform="translate(-91.3867,-235.9336)"><path
         d="M 0,540 H 960 V 0 H 0 Z"
         id="path3222" /></g></clipPath><clipPath
     clipPathUnits="userSpaceOnUse"
     id="clipPath3214"><g
       id="g3218"
       transform="translate(-96.2188,-234.8369)"><path
         d="M 0,540 H 960 V 0 H 0 Z"
         id="path3216" /></g></clipPath><clipPath
     clipPathUnits="userSpaceOnUse"
     id="clipPath3208"><g
       id="g3212"
       transform="translate(-99.5195,-238.8994)"><path
         d="M 0,540 H 960 V 0 H 0 Z"
         id="path3210" /></g></clipPath><clipPath
     clipPathUnits="userSpaceOnUse"
     id="clipPath3202"><g
       id="g3206"><path
         d="M 0,540 H 960 V 0 H 0 Z"
         id="path3204" /></g></clipPath><clipPath
     clipPathUnits="userSpaceOnUse"
     id="clipPath3196"><g
       id="g3200"
       transform="translate(-109.832,-237.0391)"><path
         d="M 0,540 H 960 V 0 H 0 Z"
         id="path3198" /></g></clipPath><clipPath
     clipPathUnits="userSpaceOnUse"
     id="clipPath3190"><g
       id="g3194"
       transform="translate(-114.3516,-236.7295)"><path
         d="M 0,540 H 960 V 0 H 0 Z"
         id="path3192" /></g></clipPath><clipPath
     clipPathUnits="userSpaceOnUse"
     id="clipPath3184"><g
       id="g3188"
       transform="translate(-120.5703,-237.0391)"><path
         d="M 0,540 H 960 V 0 H 0 Z"
         id="path3186" /></g></clipPath><clipPath
     clipPathUnits="userSpaceOnUse"
     id="clipPath3178"><g
       id="g3182"><path
         d="M 0,540 H 960 V 0 H 0 Z"
         id="path3180" /></g></clipPath><clipPath
     clipPathUnits="userSpaceOnUse"
     id="clipPath3172"><g
       id="g3176"
       transform="translate(-126.7559,-235.9336)"><path
         d="M 0,540 H 960 V 0 H 0 Z"
         id="path3174" /></g></clipPath><clipPath
     clipPathUnits="userSpaceOnUse"
     id="clipPath3166"><g
       id="g3170"><path
         d="M 0,540 H 960 V 0 H 0 Z"
         id="path3168" /></g></clipPath><clipPath
     clipPathUnits="userSpaceOnUse"
     id="clipPath3160"><g
       id="g3164"
       transform="translate(-134.1875,-237.0713)"><path
         d="M 0,540 H 960 V 0 H 0 Z"
         id="path3162" /></g></clipPath><clipPath
     clipPathUnits="userSpaceOnUse"
     id="clipPath3154"><g
       id="g3158"
       transform="translate(-143.0254,-239.2969)"><path
         d="M 0,540 H 960 V 0 H 0 Z"
         id="path3156" /></g></clipPath><clipPath
     clipPathUnits="userSpaceOnUse"
     id="clipPath3148"><g
       id="g3152"
       transform="translate(-147.2344,-237.0713)"><path
         d="M 0,540 H 960 V 0 H 0 Z"
         id="path3150" /></g></clipPath><clipPath
     clipPathUnits="userSpaceOnUse"
     id="clipPath3142"><g
       id="g3146"
       transform="translate(-151.3262,-236.7295)"><path
         d="M 0,540 H 960 V 0 H 0 Z"
         id="path3144" /></g></clipPath><clipPath
     clipPathUnits="userSpaceOnUse"
     id="clipPath3136"><g
       id="g3140"
       transform="translate(-160.4492,-238.8516)"><path
         d="M 0,540 H 960 V 0 H 0 Z"
         id="path3138" /></g></clipPath><clipPath
     clipPathUnits="userSpaceOnUse"
     id="clipPath3130"><g
       id="g3134"
       transform="translate(-165.2891,-236.7295)"><path
         d="M 0,540 H 960 V 0 H 0 Z"
         id="path3132" /></g></clipPath><clipPath
     clipPathUnits="userSpaceOnUse"
     id="clipPath3124"><g
       id="g3128"
       transform="translate(-168.0195,-237.0713)"><path
         d="M 0,540 H 960 V 0 H 0 Z"
         id="path3126" /></g></clipPath><clipPath
     clipPathUnits="userSpaceOnUse"
     id="clipPath3118"><g
       id="g3122"
       transform="translate(-174.8652,-238.8994)"><path
         d="M 0,540 H 960 V 0 H 0 Z"
         id="path3120" /></g></clipPath><clipPath
     clipPathUnits="userSpaceOnUse"
     id="clipPath3112"><g
       id="g3116"
       transform="translate(-178.3906,-235.9336)"><path
         d="M 0,540 H 960 V 0 H 0 Z"
         id="path3114" /></g></clipPath><clipPath
     clipPathUnits="userSpaceOnUse"
     id="clipPath3106"><g
       id="g3110"
       transform="translate(-183.7187,-235.9893)"><path
         d="M 0,540 H 960 V 0 H 0 Z"
         id="path3108" /></g></clipPath><clipPath
     clipPathUnits="userSpaceOnUse"
     id="clipPath3100"><g
       id="g3104"
       transform="translate(-188.0449,-235.9336)"><path
         d="M 0,540 H 960 V 0 H 0 Z"
         id="path3102" /></g></clipPath><clipPath
     clipPathUnits="userSpaceOnUse"
     id="clipPath3094"><g
       id="g3098"
       transform="translate(-193.5469,-236.7295)"><path
         d="M 0,540 H 960 V 0 H 0 Z"
         id="path3096" /></g></clipPath><clipPath
     clipPathUnits="userSpaceOnUse"
     id="clipPath3088"><g
       id="g3092"
       transform="translate(-200.875,-236.7295)"><path
         d="M 0,540 H 960 V 0 H 0 Z"
         id="path3090" /></g></clipPath><clipPath
     clipPathUnits="userSpaceOnUse"
     id="clipPath3082"><g
       id="g3086"
       transform="translate(-203.873,-237.0713)"><path
         d="M 0,540 H 960 V 0 H 0 Z"
         id="path3084" /></g></clipPath><clipPath
     clipPathUnits="userSpaceOnUse"
     id="clipPath3076"><g
       id="g3080"
       transform="translate(-213.7363,-236.7051)"><path
         d="M 0,540 H 960 V 0 H 0 Z"
         id="path3078" /></g></clipPath><clipPath
     clipPathUnits="userSpaceOnUse"
     id="clipPath3070"><g
       id="g3074"
       transform="translate(-218.8633,-234.8369)"><path
         d="M 0,540 H 960 V 0 H 0 Z"
         id="path3072" /></g></clipPath><clipPath
     clipPathUnits="userSpaceOnUse"
     id="clipPath3064"><g
       id="g3068"><path
         d="M 0,540 H 960 V 0 H 0 Z"
         id="path3066" /></g></clipPath><clipPath
     clipPathUnits="userSpaceOnUse"
     id="clipPath3058"><g
       id="g3062"
       transform="translate(-226.1035,-238.8516)"><path
         d="M 0,540 H 960 V 0 H 0 Z"
         id="path3060" /></g></clipPath><clipPath
     clipPathUnits="userSpaceOnUse"
     id="clipPath3052"><g
       id="g3056"
       transform="translate(-229.8887,-236.7295)"><path
         d="M 0,540 H 960 V 0 H 0 Z"
         id="path3054" /></g></clipPath><clipPath
     clipPathUnits="userSpaceOnUse"
     id="clipPath3046"><g
       id="g3050"
       transform="translate(-231.4961,-235.0273)"><path
         d="M 0,540 H 960 V 0 H 0 Z"
         id="path3048" /></g></clipPath><clipPath
     clipPathUnits="userSpaceOnUse"
     id="clipPath3040"><g
       id="g3044"
       transform="translate(-290.4489,-287.356)"><path
         d="M 0,540 H 960 V 0 H 0 Z"
         id="path3042" /></g></clipPath><clipPath
     clipPathUnits="userSpaceOnUse"
     id="clipPath3034"><g
       id="g3038"
       transform="translate(-266.0853,-307.4954)"><path
         d="M 0,540 H 960 V 0 H 0 Z"
         id="path3036" /></g></clipPath><clipPath
     clipPathUnits="userSpaceOnUse"
     id="clipPath3028"><g
       id="g3032"
       transform="translate(-280.6631,-290.2859)"><path
         d="M 0,540 H 960 V 0 H 0 Z"
         id="path3030" /></g></clipPath><clipPath
     clipPathUnits="userSpaceOnUse"
     id="clipPath3022"><g
       id="g3026"
       transform="translate(-282.3323,-283.1184)"><path
         d="M 0,540 H 960 V 0 H 0 Z"
         id="path3024" /></g></clipPath><clipPath
     clipPathUnits="userSpaceOnUse"
     id="clipPath38165"><g
       id="g38169"
       transform="translate(-670.0652,-268.62)"><path
         d="M 0,540 H 960 V 0 H 0 Z"
         id="path38167" /></g></clipPath><clipPath
     clipPathUnits="userSpaceOnUse"
     id="clipPath38159"><g
       id="g38163"
       transform="translate(-726.153,-282.1796)"><path
         d="M 0,540 H 960 V 0 H 0 Z"
         id="path38161" /></g></clipPath><clipPath
     clipPathUnits="userSpaceOnUse"
     id="clipPath38153"><g
       id="g38157"><path
         d="M 0,540 H 960 V 0 H 0 Z"
         id="path38155" /></g></clipPath><clipPath
     clipPathUnits="userSpaceOnUse"
     id="clipPath38147"><g
       id="g38151"
       transform="translate(-763.9854,-280.1302)"><path
         d="M 0,540 H 960 V 0 H 0 Z"
         id="path38149" /></g></clipPath><clipPath
     clipPathUnits="userSpaceOnUse"
     id="clipPath38141"><g
       id="g38145"
       transform="translate(-781.9637,-282.6003)"><path
         d="M 0,540 H 960 V 0 H 0 Z"
         id="path38143" /></g></clipPath><clipPath
     clipPathUnits="userSpaceOnUse"
     id="clipPath38135"><g
       id="g38139"
       transform="translate(-822.9824,-294.6888)"><path
         d="M 0,540 H 960 V 0 H 0 Z"
         id="path38137" /></g></clipPath><clipPath
     clipPathUnits="userSpaceOnUse"
     id="clipPath37769"><g
       id="g37773"
       transform="translate(-877.106,-287.356)"><path
         d="M 0,540 H 960 V 0 H 0 Z"
         id="path37771" /></g></clipPath><clipPath
     clipPathUnits="userSpaceOnUse"
     id="clipPath37763"><g
       id="g37767"
       transform="translate(-852.7422,-307.4954)"><path
         d="M 0,540 H 960 V 0 H 0 Z"
         id="path37765" /></g></clipPath><clipPath
     clipPathUnits="userSpaceOnUse"
     id="clipPath37757"><g
       id="g37761"
       transform="translate(-867.32,-290.2859)"><path
         d="M 0,540 H 960 V 0 H 0 Z"
         id="path37759" /></g></clipPath><clipPath
     clipPathUnits="userSpaceOnUse"
     id="clipPath37751"><g
       id="g37755"
       transform="translate(-868.9893,-283.1184)"><path
         d="M 0,540 H 960 V 0 H 0 Z"
         id="path37753" /></g></clipPath></defs><sodipodi:namedview
   id="namedview75"
   pagecolor="#ffffff"
   bordercolor="#666666"
   borderopacity="1.0"
   inkscape:pageshadow="2"
   inkscape:pageopacity="0.0"
   inkscape:pagecheckerboard="0"
   showgrid="false"
   inkscape:zoom="0.8374334"
   inkscape:cx="542.13266"
   inkscape:cy="237.63084"
   inkscape:window-width="1920"
   inkscape:window-height="1043"
   inkscape:window-x="0"
   inkscape:window-y="0"
   inkscape:window-maximized="1"
   inkscape:current-layer="text1527"
   showguides="false"
   width="1267.84px"
   inkscape:showpageshadow="2"
   inkscape:deskcolor="#d1d1d1" />
<style
   type="text/css"
   id="style2">
	.st0{fill:#FFFFFF;}
	.st1{fill-rule:evenodd;clip-rule:evenodd;fill:#003795;}
	.st2{fill:#015EFD;}
	.st3{fill-rule:evenodd;clip-rule:evenodd;fill:#0041AF;}
	.st4{fill-rule:evenodd;clip-rule:evenodd;fill:#004BCB;}
	.st5{fill:#00B4FF;}
	.st6{fill-rule:evenodd;clip-rule:evenodd;fill:#939393;}
	.st7{fill-rule:evenodd;clip-rule:evenodd;fill:#AFAFAF;}
	.st8{fill-rule:evenodd;clip-rule:evenodd;fill:#E8E8E8;}
</style>


<text
   xml:space="preserve"
   id="text1849"
   style="font-style:normal;font-weight:normal;font-size:40px;line-height:1.25;font-family:sans-serif;white-space:pre;shape-inside:url(#rect1851);display:inline;fill:#000000;fill-opacity:1;stroke:none" /></svg>
